<svg width="143" height="40" viewBox="0 0 143 40" fill="none" xmlns="http://www.w3.org/2000/svg">
<path d="M34.1422 5.85781C30.3647 2.08031 25.3422 0 20 0C14.6578 0 9.63531 2.08031 5.85781 5.85781C2.08031 9.63531 0 14.6578 0 20C0 25.3422 2.08039 30.3646 5.85781 34.1422C9.63523 37.9198 14.6578 40 20 40C25.3422 40 30.3647 37.9197 34.1422 34.1422C37.9197 30.3647 40 25.3422 40 20C40 14.6578 37.9196 9.63539 34.1422 5.85781Z" fill="#33CC95"/>
<g clip-path="url(#clip0_35212_417)">
<path d="M20.5714 8V33.1429" stroke="white" stroke-width="2" stroke-linecap="round" stroke-linejoin="round"/>
<path d="M26.2857 12.5714H17.7143C16.6534 12.5714 15.636 12.9929 14.8859 13.743C14.1357 14.4931 13.7143 15.5106 13.7143 16.5714C13.7143 17.6323 14.1357 18.6497 14.8859 19.3999C15.636 20.15 16.6534 20.5714 17.7143 20.5714H23.4286C24.4894 20.5714 25.5069 20.9929 26.257 21.743C27.0072 22.4932 27.4286 23.5106 27.4286 24.5714C27.4286 25.6323 27.0072 26.6497 26.257 27.3999C25.5069 28.15 24.4894 28.5714 23.4286 28.5714H13.7143" stroke="white" stroke-width="2" stroke-linecap="round" stroke-linejoin="round"/>
</g>
<path d="M77.5919 28H80.9519V20.2C80.9519 16.528 78.6959 14.512 75.5039 14.512C73.5599 14.512 71.8079 15.544 70.9439 17.056C70.0319 15.4 68.3279 14.512 66.2639 14.512C64.6079 14.512 63.1919 15.208 62.3519 16.312V14.704H58.9919V28H62.3519V20.656C62.3519 18.544 63.5279 17.44 65.3519 17.44C67.1279 17.44 68.3039 18.544 68.3039 20.656V28H71.6639V20.656C71.6639 18.544 72.8399 17.44 74.6399 17.44C76.4159 17.44 77.5919 18.544 77.5919 20.656V28ZM96.9804 21.352C96.9804 17.152 93.9804 14.488 90.1404 14.488C86.3004 14.488 83.3004 17.152 83.3004 21.352C83.3004 25.528 86.2044 28.216 90.0444 28.216C93.9084 28.216 96.9804 25.528 96.9804 21.352ZM86.7084 21.352C86.7084 18.688 88.3164 17.416 90.0924 17.416C91.8684 17.416 93.5244 18.688 93.5244 21.352C93.5244 23.992 91.8204 25.288 90.0444 25.288C88.2444 25.288 86.7084 23.992 86.7084 21.352ZM108.757 28H112.117V20.2C112.117 16.528 109.909 14.512 106.813 14.512C105.109 14.512 103.669 15.232 102.805 16.36V14.704H99.4451V28H102.805V20.656C102.805 18.52 103.981 17.368 105.805 17.368C107.581 17.368 108.757 18.52 108.757 20.656V28ZM121.024 17.248C122.752 17.248 124.144 18.352 124.192 20.104H117.88C118.144 18.28 119.416 17.248 121.024 17.248ZM127.336 23.824H123.712C123.28 24.712 122.488 25.432 121.048 25.432C119.368 25.432 118.024 24.328 117.856 22.36H127.576C127.648 21.928 127.672 21.496 127.672 21.064C127.672 17.104 124.96 14.488 121.12 14.488C117.184 14.488 114.448 17.152 114.448 21.352C114.448 25.528 117.256 28.216 121.12 28.216C124.408 28.216 126.616 26.272 127.336 23.824ZM135.789 23.992L132.357 14.704H128.589L133.917 27.664L131.037 34.288H134.613L142.845 14.704H139.269L135.789 23.992Z" fill="white"/>
<defs>
<clipPath id="clip0_35212_417">
<rect width="27.4286" height="27.4286" fill="white" transform="translate(6.85715 6.85714)"/>
</clipPath>
</defs>
</svg>
